<mxfile host="app.diagrams.net" agent="Mozilla/5.0 (X11; Linux x86_64) AppleWebKit/537.36 (KHTML, like Gecko) Chrome/135.0.0.0 Safari/537.36" version="26.2.9">
  <diagram name="PÃ¡gina-1" id="ImjHyJgH3BaFqltMjtrV">
    <mxGraphModel dx="1428" dy="743" grid="0" gridSize="10" guides="1" tooltips="1" connect="1" arrows="1" fold="1" page="1" pageScale="1" pageWidth="827" pageHeight="1169" background="light-dark(#FFFFFF,#FFFFFF)" math="0" shadow="0">
      <root>
        <mxCell id="0" />
        <mxCell id="1" parent="0" />
        <mxCell id="OKMkMEvzD6gkjavkUlb_-144" value="" style="group;dashed=1;dashPattern=8 8;container=0;labelBackgroundColor=none;" parent="1" vertex="1" connectable="0">
          <mxGeometry x="14" y="27" width="280" height="273.9" as="geometry" />
        </mxCell>
        <mxCell id="PkwB0OAWQbsNOSKVEP2Q-4" value="" style="group" vertex="1" connectable="0" parent="1">
          <mxGeometry x="284" y="52" width="508.65999999999997" height="642" as="geometry" />
        </mxCell>
        <mxCell id="OKMkMEvzD6gkjavkUlb_-1" value="10011011&lt;div&gt;11100101&lt;/div&gt;&lt;div&gt;11000111&lt;/div&gt;&lt;div&gt;00001111&lt;/div&gt;" style="whiteSpace=wrap;html=1;aspect=fixed;labelBackgroundColor=none;fontColor=light-dark(#000000,#000000);fillColor=light-dark(#FFFFFF,#FFFFFF);strokeColor=light-dark(#000000,#000000);" parent="PkwB0OAWQbsNOSKVEP2Q-4" vertex="1">
          <mxGeometry x="123" y="97.6" width="65" height="65" as="geometry" />
        </mxCell>
        <mxCell id="OKMkMEvzD6gkjavkUlb_-2" value="&lt;b&gt;R[i]&lt;/b&gt;" style="text;html=1;align=center;verticalAlign=middle;whiteSpace=wrap;rounded=0;labelBackgroundColor=none;fontColor=light-dark(#000000,#000000);" parent="PkwB0OAWQbsNOSKVEP2Q-4" vertex="1">
          <mxGeometry x="85" y="115.1" width="33" height="30" as="geometry" />
        </mxCell>
        <mxCell id="OKMkMEvzD6gkjavkUlb_-4" value="32 bits" style="ellipse;shape=cloud;whiteSpace=wrap;html=1;labelBackgroundColor=none;fillColor=light-dark(#FFFFFF,#FFFFFF);strokeColor=light-dark(#000000,#000000);fontColor=light-dark(#000000,#000000);" parent="PkwB0OAWQbsNOSKVEP2Q-4" vertex="1">
          <mxGeometry x="185" y="10" width="69" height="38" as="geometry" />
        </mxCell>
        <mxCell id="OKMkMEvzD6gkjavkUlb_-5" value="" style="curved=1;endArrow=classic;html=1;rounded=0;exitX=0.31;exitY=0.8;exitDx=0;exitDy=0;exitPerimeter=0;entryX=1;entryY=0;entryDx=0;entryDy=0;labelBackgroundColor=none;fontColor=light-dark(#000000,#000000);strokeColor=light-dark(#000000,#000000);" parent="PkwB0OAWQbsNOSKVEP2Q-4" target="OKMkMEvzD6gkjavkUlb_-1" edge="1">
          <mxGeometry width="50" height="50" relative="1" as="geometry">
            <mxPoint x="205.38999999999987" y="40.00000000000003" as="sourcePoint" />
            <mxPoint x="170" y="93.6" as="targetPoint" />
            <Array as="points">
              <mxPoint x="212" y="69.6" />
              <mxPoint x="198" y="73.6" />
            </Array>
          </mxGeometry>
        </mxCell>
        <mxCell id="OKMkMEvzD6gkjavkUlb_-6" value="&lt;div&gt;&lt;font style=&quot;font-size: 9px;&quot;&gt;&amp;nbsp;32&amp;nbsp; &amp;nbsp;1&amp;nbsp; &amp;nbsp;2&amp;nbsp; &amp;nbsp;3&amp;nbsp; &amp;nbsp;4&amp;nbsp; &amp;nbsp;5&amp;nbsp; &amp;nbsp;4&amp;nbsp; &amp;nbsp;5&amp;nbsp;&amp;nbsp;&lt;/font&gt;&lt;/div&gt;&lt;div&gt;&lt;font style=&quot;font-size: 9px;&quot;&gt;&amp;nbsp; 6&amp;nbsp; &amp;nbsp;7&amp;nbsp; &amp;nbsp;8&amp;nbsp; &amp;nbsp;9&amp;nbsp; &amp;nbsp;8&amp;nbsp; &amp;nbsp;9&amp;nbsp; 10&amp;nbsp; 11&amp;nbsp;&amp;nbsp;&lt;/font&gt;&lt;/div&gt;&lt;div&gt;&lt;font style=&quot;font-size: 9px;&quot;&gt;&amp;nbsp;12&amp;nbsp; 13&amp;nbsp; 12&amp;nbsp; 13&amp;nbsp; 14&amp;nbsp; 15&amp;nbsp; 16&amp;nbsp; 17&amp;nbsp;&amp;nbsp;&lt;/font&gt;&lt;/div&gt;&lt;div&gt;&lt;font style=&quot;font-size: 9px;&quot;&gt;&amp;nbsp;16&amp;nbsp; 17&amp;nbsp; 18&amp;nbsp; 19&amp;nbsp; 20&amp;nbsp; 21&amp;nbsp; 20&amp;nbsp; 21&amp;nbsp;&amp;nbsp;&lt;/font&gt;&lt;/div&gt;&lt;div&gt;&lt;font style=&quot;font-size: 9px;&quot;&gt;&amp;nbsp;22&amp;nbsp; 23&amp;nbsp; 24&amp;nbsp; 25&amp;nbsp; 24&amp;nbsp; 25&amp;nbsp; 26&amp;nbsp; 27&amp;nbsp;&amp;nbsp;&lt;/font&gt;&lt;/div&gt;&lt;div&gt;&lt;font style=&quot;font-size: 9px;&quot;&gt;&amp;nbsp;28&amp;nbsp; 29&amp;nbsp; 28&amp;nbsp; 29&amp;nbsp; 30&amp;nbsp; 31&amp;nbsp; 32&amp;nbsp; &amp;nbsp;1&amp;nbsp;&amp;nbsp;&lt;/font&gt;&lt;/div&gt;&lt;div&gt;&lt;br&gt;&lt;/div&gt;" style="whiteSpace=wrap;html=1;aspect=fixed;labelBackgroundColor=light-dark(#FFFFFF,#FFFFFF);fontColor=light-dark(#000000,#000000);fillColor=light-dark(#FFFFFF,#FFFFFF);strokeColor=light-dark(#000000,#000000);strokeWidth=2;" parent="PkwB0OAWQbsNOSKVEP2Q-4" vertex="1">
          <mxGeometry x="274.5" y="64" width="126" height="126" as="geometry" />
        </mxCell>
        <mxCell id="OKMkMEvzD6gkjavkUlb_-7" value="&lt;b&gt;E&lt;/b&gt;" style="text;html=1;align=center;verticalAlign=middle;whiteSpace=wrap;rounded=0;labelBackgroundColor=none;fontColor=light-dark(#000000,#000000);" parent="PkwB0OAWQbsNOSKVEP2Q-4" vertex="1">
          <mxGeometry x="400.5" y="107" width="33" height="30" as="geometry" />
        </mxCell>
        <mxCell id="OKMkMEvzD6gkjavkUlb_-8" value="48 bits" style="ellipse;shape=cloud;whiteSpace=wrap;html=1;labelBackgroundColor=none;fontColor=light-dark(#000000,#000000);strokeColor=light-dark(#000000,#000000);fillColor=light-dark(#FFFFFF,#FFFFFF);" parent="PkwB0OAWQbsNOSKVEP2Q-4" vertex="1">
          <mxGeometry x="406" width="69" height="38" as="geometry" />
        </mxCell>
        <mxCell id="OKMkMEvzD6gkjavkUlb_-9" value="" style="curved=1;endArrow=classic;html=1;rounded=0;entryX=1;entryY=0;entryDx=0;entryDy=0;labelBackgroundColor=none;fontColor=light-dark(#000000,#000000);strokeColor=light-dark(#000000,#000000);" parent="PkwB0OAWQbsNOSKVEP2Q-4" target="OKMkMEvzD6gkjavkUlb_-6" edge="1">
          <mxGeometry width="50" height="50" relative="1" as="geometry">
            <mxPoint x="415" y="21" as="sourcePoint" />
            <mxPoint x="400.5" y="121" as="targetPoint" />
            <Array as="points">
              <mxPoint x="396" y="45" />
              <mxPoint x="410" y="41" />
            </Array>
          </mxGeometry>
        </mxCell>
        <mxCell id="OKMkMEvzD6gkjavkUlb_-16" style="edgeStyle=orthogonalEdgeStyle;rounded=0;orthogonalLoop=1;jettySize=auto;html=1;labelBackgroundColor=none;fontColor=light-dark(#000000,#000000);strokeColor=light-dark(#000000,#000000);" parent="PkwB0OAWQbsNOSKVEP2Q-4" source="OKMkMEvzD6gkjavkUlb_-10" edge="1">
          <mxGeometry relative="1" as="geometry">
            <mxPoint x="188.71428571428578" y="127" as="targetPoint" />
          </mxGeometry>
        </mxCell>
        <mxCell id="OKMkMEvzD6gkjavkUlb_-17" style="edgeStyle=orthogonalEdgeStyle;rounded=0;orthogonalLoop=1;jettySize=auto;html=1;entryX=0;entryY=0.5;entryDx=0;entryDy=0;labelBackgroundColor=none;fontColor=light-dark(#000000,#000000);strokeColor=light-dark(#000000,#000000);" parent="PkwB0OAWQbsNOSKVEP2Q-4" source="OKMkMEvzD6gkjavkUlb_-10" target="OKMkMEvzD6gkjavkUlb_-6" edge="1">
          <mxGeometry relative="1" as="geometry" />
        </mxCell>
        <mxCell id="OKMkMEvzD6gkjavkUlb_-23" style="edgeStyle=orthogonalEdgeStyle;rounded=0;orthogonalLoop=1;jettySize=auto;html=1;entryX=0.5;entryY=0;entryDx=0;entryDy=0;labelBackgroundColor=none;fontColor=light-dark(#000000,#000000);strokeColor=light-dark(#000000,#000000);" parent="PkwB0OAWQbsNOSKVEP2Q-4" source="OKMkMEvzD6gkjavkUlb_-10" target="OKMkMEvzD6gkjavkUlb_-20" edge="1">
          <mxGeometry relative="1" as="geometry" />
        </mxCell>
        <mxCell id="OKMkMEvzD6gkjavkUlb_-139" value="48" style="edgeLabel;html=1;align=center;verticalAlign=middle;resizable=0;points=[];labelBackgroundColor=none;fontColor=light-dark(#000000,#000000);" parent="OKMkMEvzD6gkjavkUlb_-23" vertex="1" connectable="0">
          <mxGeometry x="0.0246" relative="1" as="geometry">
            <mxPoint x="8" y="2" as="offset" />
          </mxGeometry>
        </mxCell>
        <mxCell id="OKMkMEvzD6gkjavkUlb_-10" value="" style="shape=image;html=1;verticalLabelPosition=bottom;verticalAlign=top;imageAspect=1;aspect=fixed;image=img/clipart/Gear_128x128.png;labelBackgroundColor=none;" parent="PkwB0OAWQbsNOSKVEP2Q-4" vertex="1">
          <mxGeometry x="213" y="105.5" width="36.66" height="43" as="geometry" />
        </mxCell>
        <mxCell id="OKMkMEvzD6gkjavkUlb_-20" value="" style="shape=orEllipse;perimeter=ellipsePerimeter;whiteSpace=wrap;html=1;backgroundOutline=1;labelBackgroundColor=none;strokeColor=light-dark(#000000,#000000);fillColor=light-dark(#FFFFFF,#FFFFFF);" parent="PkwB0OAWQbsNOSKVEP2Q-4" vertex="1">
          <mxGeometry x="216.32999999999998" y="274.5" width="30" height="30" as="geometry" />
        </mxCell>
        <mxCell id="OKMkMEvzD6gkjavkUlb_-31" style="edgeStyle=orthogonalEdgeStyle;rounded=0;orthogonalLoop=1;jettySize=auto;html=1;entryX=1;entryY=0.5;entryDx=0;entryDy=0;labelBackgroundColor=none;fontColor=light-dark(#000000,#000000);strokeColor=light-dark(#000000,#000000);" parent="PkwB0OAWQbsNOSKVEP2Q-4" source="OKMkMEvzD6gkjavkUlb_-21" target="OKMkMEvzD6gkjavkUlb_-20" edge="1">
          <mxGeometry relative="1" as="geometry" />
        </mxCell>
        <mxCell id="OKMkMEvzD6gkjavkUlb_-140" value="48" style="edgeLabel;html=1;align=center;verticalAlign=middle;resizable=0;points=[];labelBackgroundColor=none;fontColor=light-dark(#000000,#000000);" parent="OKMkMEvzD6gkjavkUlb_-31" vertex="1" connectable="0">
          <mxGeometry x="-0.1127" y="1" relative="1" as="geometry">
            <mxPoint x="-3" y="7" as="offset" />
          </mxGeometry>
        </mxCell>
        <mxCell id="OKMkMEvzD6gkjavkUlb_-21" value="10011011&lt;div&gt;11100101&lt;/div&gt;&lt;div&gt;11000111&lt;/div&gt;&lt;div&gt;00001111&lt;/div&gt;" style="whiteSpace=wrap;html=1;aspect=fixed;labelBackgroundColor=none;fontColor=light-dark(#000000,#000000);strokeColor=light-dark(#000000,#000000);fillColor=light-dark(#FFFFFF,#FFFFFF);" parent="PkwB0OAWQbsNOSKVEP2Q-4" vertex="1">
          <mxGeometry x="341" y="257" width="65" height="65" as="geometry" />
        </mxCell>
        <mxCell id="OKMkMEvzD6gkjavkUlb_-22" value="&lt;b&gt;K[i]&lt;/b&gt;" style="text;html=1;align=center;verticalAlign=middle;whiteSpace=wrap;rounded=0;labelBackgroundColor=none;fontColor=light-dark(#000000,#000000);" parent="PkwB0OAWQbsNOSKVEP2Q-4" vertex="1">
          <mxGeometry x="406" y="274.5" width="33" height="30" as="geometry" />
        </mxCell>
        <mxCell id="OKMkMEvzD6gkjavkUlb_-25" value="" style="image;aspect=fixed;perimeter=ellipsePerimeter;html=1;align=center;shadow=0;dashed=0;spacingTop=3;image=img/lib/active_directory/key.svg;labelBackgroundColor=none;" parent="PkwB0OAWQbsNOSKVEP2Q-4" vertex="1">
          <mxGeometry x="384" y="246" width="31.08" height="23" as="geometry" />
        </mxCell>
        <mxCell id="OKMkMEvzD6gkjavkUlb_-26" value="48 bits" style="ellipse;shape=cloud;whiteSpace=wrap;html=1;labelBackgroundColor=light-dark(#FFFFFF,#FFFFFF);fontColor=light-dark(#000000,#000000);strokeColor=light-dark(#000000,#000000);fillColor=light-dark(#FFFFFF,#FFFFFF);" parent="PkwB0OAWQbsNOSKVEP2Q-4" vertex="1">
          <mxGeometry x="410" y="193" width="69" height="38" as="geometry" />
        </mxCell>
        <mxCell id="OKMkMEvzD6gkjavkUlb_-27" value="" style="curved=1;endArrow=classic;html=1;rounded=0;entryX=1;entryY=0;entryDx=0;entryDy=0;labelBackgroundColor=none;fontColor=default;strokeColor=light-dark(#000000,#000000);" parent="PkwB0OAWQbsNOSKVEP2Q-4" edge="1">
          <mxGeometry width="50" height="50" relative="1" as="geometry">
            <mxPoint x="419.5" y="214" as="sourcePoint" />
            <mxPoint x="405.5" y="257" as="targetPoint" />
            <Array as="points">
              <mxPoint x="400.5" y="238" />
              <mxPoint x="414.5" y="234" />
            </Array>
          </mxGeometry>
        </mxCell>
        <mxCell id="OKMkMEvzD6gkjavkUlb_-43" value="" style="group;labelBackgroundColor=none;fontColor=light-dark(#000000,#000000);" parent="PkwB0OAWQbsNOSKVEP2Q-4" vertex="1" connectable="0">
          <mxGeometry x="116" y="401" width="58" height="53" as="geometry" />
        </mxCell>
        <mxCell id="OKMkMEvzD6gkjavkUlb_-44" value="100&lt;div&gt;110&lt;/div&gt;" style="whiteSpace=wrap;html=1;aspect=fixed;labelBackgroundColor=none;" parent="OKMkMEvzD6gkjavkUlb_-43" vertex="1">
          <mxGeometry x="12.718928229665071" y="8.831125" width="32.561403508771924" height="32.561403508771924" as="geometry" />
        </mxCell>
        <mxCell id="OKMkMEvzD6gkjavkUlb_-146" value="&lt;b&gt;S3&lt;/b&gt;" style="text;html=1;align=center;verticalAlign=middle;whiteSpace=wrap;rounded=0;labelBackgroundColor=none;fontColor=light-dark(#000000,#000000);" parent="OKMkMEvzD6gkjavkUlb_-43" vertex="1">
          <mxGeometry x="-2" y="-7.170000000000016" width="20" height="16" as="geometry" />
        </mxCell>
        <mxCell id="OKMkMEvzD6gkjavkUlb_-74" value="" style="group;labelBackgroundColor=none;" parent="PkwB0OAWQbsNOSKVEP2Q-4" vertex="1" connectable="0">
          <mxGeometry x="174" y="401" width="58" height="53" as="geometry" />
        </mxCell>
        <mxCell id="OKMkMEvzD6gkjavkUlb_-75" value="100&lt;div&gt;110&lt;/div&gt;" style="whiteSpace=wrap;html=1;aspect=fixed;labelBackgroundColor=none;" parent="OKMkMEvzD6gkjavkUlb_-74" vertex="1">
          <mxGeometry x="12.718928229665071" y="8.831125" width="32.561403508771924" height="32.561403508771924" as="geometry" />
        </mxCell>
        <mxCell id="OKMkMEvzD6gkjavkUlb_-151" value="&lt;b&gt;S4&lt;/b&gt;" style="text;html=1;align=center;verticalAlign=middle;whiteSpace=wrap;rounded=0;labelBackgroundColor=none;fontColor=light-dark(#000000,#000000);" parent="OKMkMEvzD6gkjavkUlb_-74" vertex="1">
          <mxGeometry y="-7.170000000000016" width="20" height="16" as="geometry" />
        </mxCell>
        <mxCell id="OKMkMEvzD6gkjavkUlb_-76" value="" style="group;labelBackgroundColor=none;" parent="PkwB0OAWQbsNOSKVEP2Q-4" vertex="1" connectable="0">
          <mxGeometry x="407" y="401" width="58" height="53" as="geometry" />
        </mxCell>
        <mxCell id="OKMkMEvzD6gkjavkUlb_-77" value="100&lt;div&gt;110&lt;/div&gt;" style="whiteSpace=wrap;html=1;aspect=fixed;labelBackgroundColor=none;" parent="OKMkMEvzD6gkjavkUlb_-76" vertex="1">
          <mxGeometry x="12.718928229665071" y="8.831125" width="32.561403508771924" height="32.561403508771924" as="geometry" />
        </mxCell>
        <mxCell id="OKMkMEvzD6gkjavkUlb_-148" value="&lt;b&gt;S8&lt;/b&gt;" style="text;html=1;align=center;verticalAlign=middle;whiteSpace=wrap;rounded=0;labelBackgroundColor=none;fontColor=light-dark(#000000,#000000);" parent="OKMkMEvzD6gkjavkUlb_-76" vertex="1">
          <mxGeometry x="-1.8400000000000318" y="-9" width="20" height="16" as="geometry" />
        </mxCell>
        <mxCell id="OKMkMEvzD6gkjavkUlb_-78" value="" style="group;labelBackgroundColor=none;fontColor=light-dark(#000000,#000000);" parent="PkwB0OAWQbsNOSKVEP2Q-4" vertex="1" connectable="0">
          <mxGeometry x="58" y="401" width="58" height="53" as="geometry" />
        </mxCell>
        <mxCell id="OKMkMEvzD6gkjavkUlb_-79" value="100&lt;div&gt;110&lt;/div&gt;" style="whiteSpace=wrap;html=1;aspect=fixed;labelBackgroundColor=none;" parent="OKMkMEvzD6gkjavkUlb_-78" vertex="1">
          <mxGeometry x="12.718928229665071" y="8.831125" width="32.561403508771924" height="32.561403508771924" as="geometry" />
        </mxCell>
        <mxCell id="OKMkMEvzD6gkjavkUlb_-80" value="" style="group;labelBackgroundColor=none;" parent="PkwB0OAWQbsNOSKVEP2Q-4" vertex="1" connectable="0">
          <mxGeometry y="401" width="58" height="53" as="geometry" />
        </mxCell>
        <mxCell id="OKMkMEvzD6gkjavkUlb_-81" value="100&lt;div&gt;110&lt;/div&gt;" style="whiteSpace=wrap;html=1;aspect=fixed;labelBackgroundColor=none;" parent="OKMkMEvzD6gkjavkUlb_-80" vertex="1">
          <mxGeometry x="12.718928229665071" y="8.831125" width="32.561403508771924" height="32.561403508771924" as="geometry" />
        </mxCell>
        <mxCell id="OKMkMEvzD6gkjavkUlb_-145" value="&lt;b&gt;S1&lt;/b&gt;" style="text;html=1;align=center;verticalAlign=middle;whiteSpace=wrap;rounded=0;labelBackgroundColor=none;fontColor=light-dark(#000000,#000000);" parent="OKMkMEvzD6gkjavkUlb_-80" vertex="1">
          <mxGeometry x="-7.279999999999973" y="-7.170000000000016" width="20" height="16" as="geometry" />
        </mxCell>
        <mxCell id="OKMkMEvzD6gkjavkUlb_-84" value="" style="group;labelBackgroundColor=none;" parent="PkwB0OAWQbsNOSKVEP2Q-4" vertex="1" connectable="0">
          <mxGeometry x="291" y="401" width="58" height="53" as="geometry" />
        </mxCell>
        <mxCell id="OKMkMEvzD6gkjavkUlb_-85" value="100&lt;div&gt;110&lt;/div&gt;" style="whiteSpace=wrap;html=1;aspect=fixed;labelBackgroundColor=none;" parent="OKMkMEvzD6gkjavkUlb_-84" vertex="1">
          <mxGeometry x="12.718928229665071" y="8.831125" width="32.561403508771924" height="32.561403508771924" as="geometry" />
        </mxCell>
        <mxCell id="OKMkMEvzD6gkjavkUlb_-147" value="&lt;b&gt;S6&lt;/b&gt;" style="text;html=1;align=center;verticalAlign=middle;whiteSpace=wrap;rounded=0;labelBackgroundColor=none;fontColor=light-dark(#000000,#000000);" parent="OKMkMEvzD6gkjavkUlb_-84" vertex="1">
          <mxGeometry y="-7.170000000000016" width="20" height="16" as="geometry" />
        </mxCell>
        <mxCell id="OKMkMEvzD6gkjavkUlb_-86" value="" style="group;labelBackgroundColor=none;" parent="PkwB0OAWQbsNOSKVEP2Q-4" vertex="1" connectable="0">
          <mxGeometry x="349.0000000000001" y="401" width="58" height="53" as="geometry" />
        </mxCell>
        <mxCell id="OKMkMEvzD6gkjavkUlb_-87" value="100&lt;div&gt;110&lt;/div&gt;" style="whiteSpace=wrap;html=1;aspect=fixed;labelBackgroundColor=none;" parent="OKMkMEvzD6gkjavkUlb_-86" vertex="1">
          <mxGeometry x="12.718928229665071" y="8.831125" width="32.561403508771924" height="32.561403508771924" as="geometry" />
        </mxCell>
        <mxCell id="OKMkMEvzD6gkjavkUlb_-149" value="&lt;b&gt;S7&lt;/b&gt;" style="text;html=1;align=center;verticalAlign=middle;whiteSpace=wrap;rounded=0;labelBackgroundColor=none;fontColor=light-dark(#000000,#000000);" parent="OKMkMEvzD6gkjavkUlb_-86" vertex="1">
          <mxGeometry x="-1.1368683772161603e-13" y="-7.170000000000016" width="20" height="16" as="geometry" />
        </mxCell>
        <mxCell id="OKMkMEvzD6gkjavkUlb_-89" value="" style="endArrow=none;html=1;rounded=0;entryX=0.5;entryY=1;entryDx=0;entryDy=0;labelBackgroundColor=none;fontColor=default;strokeColor=light-dark(#000000,#000000);" parent="PkwB0OAWQbsNOSKVEP2Q-4" target="OKMkMEvzD6gkjavkUlb_-20" edge="1">
          <mxGeometry width="50" height="50" relative="1" as="geometry">
            <mxPoint x="231" y="362" as="sourcePoint" />
            <mxPoint x="185" y="312" as="targetPoint" />
          </mxGeometry>
        </mxCell>
        <mxCell id="OKMkMEvzD6gkjavkUlb_-90" value="" style="endArrow=none;html=1;rounded=0;labelBackgroundColor=none;fontColor=light-dark(#000000,#000000);strokeColor=light-dark(#000000,#000000);" parent="PkwB0OAWQbsNOSKVEP2Q-4" edge="1">
          <mxGeometry width="50" height="50" relative="1" as="geometry">
            <mxPoint x="29" y="361" as="sourcePoint" />
            <mxPoint x="437" y="359" as="targetPoint" />
          </mxGeometry>
        </mxCell>
        <mxCell id="OKMkMEvzD6gkjavkUlb_-91" value="" style="endArrow=classic;html=1;rounded=0;labelBackgroundColor=none;fontColor=light-dark(#000000,#000000);strokeColor=light-dark(#000000,#000000);" parent="PkwB0OAWQbsNOSKVEP2Q-4" edge="1">
          <mxGeometry width="50" height="50" relative="1" as="geometry">
            <mxPoint x="28.80000000000001" y="361" as="sourcePoint" />
            <mxPoint x="28.80000000000001" y="401" as="targetPoint" />
          </mxGeometry>
        </mxCell>
        <mxCell id="OKMkMEvzD6gkjavkUlb_-115" value="6" style="edgeLabel;html=1;align=center;verticalAlign=middle;resizable=0;points=[];labelBackgroundColor=none;fontColor=light-dark(#000000,#000000);" parent="OKMkMEvzD6gkjavkUlb_-91" vertex="1" connectable="0">
          <mxGeometry x="-0.2" relative="1" as="geometry">
            <mxPoint x="4" as="offset" />
          </mxGeometry>
        </mxCell>
        <mxCell id="OKMkMEvzD6gkjavkUlb_-92" value="" style="endArrow=classic;html=1;rounded=0;labelBackgroundColor=none;fontColor=light-dark(#000000,#000000);strokeColor=light-dark(#000000,#000000);" parent="PkwB0OAWQbsNOSKVEP2Q-4" edge="1">
          <mxGeometry width="50" height="50" relative="1" as="geometry">
            <mxPoint x="86.57999999999998" y="361" as="sourcePoint" />
            <mxPoint x="86.57999999999998" y="401" as="targetPoint" />
          </mxGeometry>
        </mxCell>
        <mxCell id="OKMkMEvzD6gkjavkUlb_-116" value="6" style="edgeLabel;html=1;align=center;verticalAlign=middle;resizable=0;points=[];labelBackgroundColor=none;fontColor=light-dark(#000000,#000000);" parent="OKMkMEvzD6gkjavkUlb_-92" vertex="1" connectable="0">
          <mxGeometry x="-0.1167" y="-1" relative="1" as="geometry">
            <mxPoint x="5" y="-1" as="offset" />
          </mxGeometry>
        </mxCell>
        <mxCell id="OKMkMEvzD6gkjavkUlb_-93" value="" style="endArrow=classic;html=1;rounded=0;labelBackgroundColor=none;fontColor=light-dark(#000000,#000000);strokeColor=light-dark(#000000,#000000);" parent="PkwB0OAWQbsNOSKVEP2Q-4" edge="1">
          <mxGeometry width="50" height="50" relative="1" as="geometry">
            <mxPoint x="261.79999999999995" y="361" as="sourcePoint" />
            <mxPoint x="261.79999999999995" y="401" as="targetPoint" />
          </mxGeometry>
        </mxCell>
        <mxCell id="OKMkMEvzD6gkjavkUlb_-119" value="6" style="edgeLabel;html=1;align=center;verticalAlign=middle;resizable=0;points=[];labelBackgroundColor=none;" parent="OKMkMEvzD6gkjavkUlb_-93" vertex="1" connectable="0">
          <mxGeometry x="-0.3667" y="-1" relative="1" as="geometry">
            <mxPoint x="5" y="5" as="offset" />
          </mxGeometry>
        </mxCell>
        <mxCell id="OKMkMEvzD6gkjavkUlb_-94" value="" style="endArrow=classic;html=1;rounded=0;labelBackgroundColor=none;fontColor=light-dark(#000000,#000000);strokeColor=light-dark(#000000,#000000);" parent="PkwB0OAWQbsNOSKVEP2Q-4" edge="1">
          <mxGeometry width="50" height="50" relative="1" as="geometry">
            <mxPoint x="319.79999999999995" y="361" as="sourcePoint" />
            <mxPoint x="319.79999999999995" y="401" as="targetPoint" />
          </mxGeometry>
        </mxCell>
        <mxCell id="OKMkMEvzD6gkjavkUlb_-120" value="6" style="edgeLabel;html=1;align=center;verticalAlign=middle;resizable=0;points=[];labelBackgroundColor=none;fontColor=light-dark(#000000,#000000);" parent="OKMkMEvzD6gkjavkUlb_-94" vertex="1" connectable="0">
          <mxGeometry x="-0.1167" y="-3" relative="1" as="geometry">
            <mxPoint x="7" y="1" as="offset" />
          </mxGeometry>
        </mxCell>
        <mxCell id="OKMkMEvzD6gkjavkUlb_-95" value="" style="endArrow=classic;html=1;rounded=0;labelBackgroundColor=none;fontColor=light-dark(#000000,#000000);strokeColor=light-dark(#000000,#000000);" parent="PkwB0OAWQbsNOSKVEP2Q-4" edge="1">
          <mxGeometry width="50" height="50" relative="1" as="geometry">
            <mxPoint x="377.80000000000007" y="361" as="sourcePoint" />
            <mxPoint x="377.80000000000007" y="401" as="targetPoint" />
          </mxGeometry>
        </mxCell>
        <mxCell id="OKMkMEvzD6gkjavkUlb_-121" value="6" style="edgeLabel;html=1;align=center;verticalAlign=middle;resizable=0;points=[];labelBackgroundColor=none;fontColor=light-dark(#000000,#000000);" parent="OKMkMEvzD6gkjavkUlb_-95" vertex="1" connectable="0">
          <mxGeometry x="-0.45" y="2" relative="1" as="geometry">
            <mxPoint x="2" y="7" as="offset" />
          </mxGeometry>
        </mxCell>
        <mxCell id="OKMkMEvzD6gkjavkUlb_-96" value="" style="endArrow=classic;html=1;rounded=0;labelBackgroundColor=none;fontColor=light-dark(#000000,#000000);strokeColor=light-dark(#000000,#000000);" parent="PkwB0OAWQbsNOSKVEP2Q-4" edge="1">
          <mxGeometry width="50" height="50" relative="1" as="geometry">
            <mxPoint x="436" y="359" as="sourcePoint" />
            <mxPoint x="435.80000000000007" y="401" as="targetPoint" />
          </mxGeometry>
        </mxCell>
        <mxCell id="OKMkMEvzD6gkjavkUlb_-122" value="6" style="edgeLabel;html=1;align=center;verticalAlign=middle;resizable=0;points=[];labelBackgroundColor=none;fontColor=light-dark(#000000,#000000);" parent="OKMkMEvzD6gkjavkUlb_-96" vertex="1" connectable="0">
          <mxGeometry x="-0.075" relative="1" as="geometry">
            <mxPoint x="3" as="offset" />
          </mxGeometry>
        </mxCell>
        <mxCell id="OKMkMEvzD6gkjavkUlb_-98" value="" style="endArrow=classic;html=1;rounded=0;labelBackgroundColor=none;fontColor=light-dark(#000000,#000000);strokeColor=light-dark(#000000,#000000);" parent="PkwB0OAWQbsNOSKVEP2Q-4" edge="1">
          <mxGeometry width="50" height="50" relative="1" as="geometry">
            <mxPoint x="144.79999999999995" y="361" as="sourcePoint" />
            <mxPoint x="144.79999999999995" y="401" as="targetPoint" />
          </mxGeometry>
        </mxCell>
        <mxCell id="OKMkMEvzD6gkjavkUlb_-117" value="6" style="edgeLabel;html=1;align=center;verticalAlign=middle;resizable=0;points=[];labelBackgroundColor=none;fontColor=light-dark(#000000,#000000);" parent="OKMkMEvzD6gkjavkUlb_-98" vertex="1" connectable="0">
          <mxGeometry x="-0.0333" relative="1" as="geometry">
            <mxPoint x="4" y="-2" as="offset" />
          </mxGeometry>
        </mxCell>
        <mxCell id="OKMkMEvzD6gkjavkUlb_-99" value="" style="endArrow=classic;html=1;rounded=0;labelBackgroundColor=none;fontColor=light-dark(#000000,#000000);strokeColor=light-dark(#000000,#000000);" parent="PkwB0OAWQbsNOSKVEP2Q-4" edge="1">
          <mxGeometry width="50" height="50" relative="1" as="geometry">
            <mxPoint x="202.79999999999995" y="361" as="sourcePoint" />
            <mxPoint x="202.79999999999995" y="401" as="targetPoint" />
          </mxGeometry>
        </mxCell>
        <mxCell id="OKMkMEvzD6gkjavkUlb_-118" value="6" style="edgeLabel;html=1;align=center;verticalAlign=middle;resizable=0;points=[];labelBackgroundColor=none;fontColor=light-dark(#000000,#000000);" parent="OKMkMEvzD6gkjavkUlb_-99" vertex="1" connectable="0">
          <mxGeometry x="-0.2833" y="1" relative="1" as="geometry">
            <mxPoint x="3" y="4" as="offset" />
          </mxGeometry>
        </mxCell>
        <mxCell id="OKMkMEvzD6gkjavkUlb_-101" value="" style="endArrow=classic;html=1;rounded=0;labelBackgroundColor=none;fontColor=light-dark(#000000,#000000);strokeColor=light-dark(#000000,#000000);" parent="PkwB0OAWQbsNOSKVEP2Q-4" edge="1">
          <mxGeometry width="50" height="50" relative="1" as="geometry">
            <mxPoint x="86.80000000000001" y="441" as="sourcePoint" />
            <mxPoint x="86.80000000000001" y="491" as="targetPoint" />
          </mxGeometry>
        </mxCell>
        <mxCell id="OKMkMEvzD6gkjavkUlb_-126" value="4" style="edgeLabel;html=1;align=center;verticalAlign=middle;resizable=0;points=[];labelBackgroundColor=none;fontColor=light-dark(#000000,#000000);" parent="OKMkMEvzD6gkjavkUlb_-101" vertex="1" connectable="0">
          <mxGeometry x="-0.1854" y="1" relative="1" as="geometry">
            <mxPoint x="3" y="7" as="offset" />
          </mxGeometry>
        </mxCell>
        <mxCell id="OKMkMEvzD6gkjavkUlb_-102" value="" style="endArrow=classic;html=1;rounded=0;labelBackgroundColor=none;fontColor=light-dark(#000000,#000000);strokeColor=light-dark(#000000,#000000);" parent="PkwB0OAWQbsNOSKVEP2Q-4" edge="1">
          <mxGeometry width="50" height="50" relative="1" as="geometry">
            <mxPoint x="144.79999999999995" y="441" as="sourcePoint" />
            <mxPoint x="145" y="491" as="targetPoint" />
          </mxGeometry>
        </mxCell>
        <mxCell id="OKMkMEvzD6gkjavkUlb_-127" value="4" style="edgeLabel;html=1;align=center;verticalAlign=middle;resizable=0;points=[];labelBackgroundColor=none;fontColor=light-dark(#000000,#000000);" parent="OKMkMEvzD6gkjavkUlb_-102" vertex="1" connectable="0">
          <mxGeometry x="-0.2714" y="1" relative="1" as="geometry">
            <mxPoint x="3" y="10" as="offset" />
          </mxGeometry>
        </mxCell>
        <mxCell id="OKMkMEvzD6gkjavkUlb_-103" value="" style="endArrow=classic;html=1;rounded=0;labelBackgroundColor=none;fontColor=light-dark(#000000,#000000);strokeColor=light-dark(#000000,#000000);" parent="PkwB0OAWQbsNOSKVEP2Q-4" edge="1">
          <mxGeometry width="50" height="50" relative="1" as="geometry">
            <mxPoint x="202.79999999999995" y="441" as="sourcePoint" />
            <mxPoint x="203" y="489" as="targetPoint" />
          </mxGeometry>
        </mxCell>
        <mxCell id="OKMkMEvzD6gkjavkUlb_-128" value="4" style="edgeLabel;html=1;align=center;verticalAlign=middle;resizable=0;points=[];labelBackgroundColor=none;fontColor=light-dark(#000000,#000000);" parent="OKMkMEvzD6gkjavkUlb_-103" vertex="1" connectable="0">
          <mxGeometry x="-0.2714" y="-1" relative="1" as="geometry">
            <mxPoint x="5" y="9" as="offset" />
          </mxGeometry>
        </mxCell>
        <mxCell id="OKMkMEvzD6gkjavkUlb_-104" value="" style="endArrow=classic;html=1;rounded=0;labelBackgroundColor=none;fontColor=light-dark(#000000,#000000);strokeColor=light-dark(#000000,#000000);" parent="PkwB0OAWQbsNOSKVEP2Q-4" edge="1">
          <mxGeometry width="50" height="50" relative="1" as="geometry">
            <mxPoint x="261.79999999999995" y="442" as="sourcePoint" />
            <mxPoint x="261.79999999999995" y="490" as="targetPoint" />
          </mxGeometry>
        </mxCell>
        <mxCell id="OKMkMEvzD6gkjavkUlb_-129" value="4" style="edgeLabel;html=1;align=center;verticalAlign=middle;resizable=0;points=[];labelBackgroundColor=none;fontColor=light-dark(#000000,#000000);" parent="OKMkMEvzD6gkjavkUlb_-104" vertex="1" connectable="0">
          <mxGeometry x="-0.2952" y="1" relative="1" as="geometry">
            <mxPoint x="3" y="9" as="offset" />
          </mxGeometry>
        </mxCell>
        <mxCell id="OKMkMEvzD6gkjavkUlb_-105" value="" style="endArrow=classic;html=1;rounded=0;labelBackgroundColor=none;fontColor=light-dark(#000000,#000000);strokeColor=light-dark(#000000,#000000);" parent="PkwB0OAWQbsNOSKVEP2Q-4" edge="1">
          <mxGeometry width="50" height="50" relative="1" as="geometry">
            <mxPoint x="319.79999999999995" y="442" as="sourcePoint" />
            <mxPoint x="320" y="490" as="targetPoint" />
          </mxGeometry>
        </mxCell>
        <mxCell id="OKMkMEvzD6gkjavkUlb_-130" value="4" style="edgeLabel;html=1;align=center;verticalAlign=middle;resizable=0;points=[];labelBackgroundColor=none;fontColor=light-dark(#000000,#000000);" parent="OKMkMEvzD6gkjavkUlb_-105" vertex="1" connectable="0">
          <mxGeometry x="-0.2714" relative="1" as="geometry">
            <mxPoint x="4" y="9" as="offset" />
          </mxGeometry>
        </mxCell>
        <mxCell id="OKMkMEvzD6gkjavkUlb_-106" value="" style="endArrow=classic;html=1;rounded=0;labelBackgroundColor=none;fontColor=light-dark(#000000,#000000);strokeColor=light-dark(#000000,#000000);" parent="PkwB0OAWQbsNOSKVEP2Q-4" edge="1">
          <mxGeometry width="50" height="50" relative="1" as="geometry">
            <mxPoint x="378.23" y="441" as="sourcePoint" />
            <mxPoint x="377.77" y="489" as="targetPoint" />
          </mxGeometry>
        </mxCell>
        <mxCell id="OKMkMEvzD6gkjavkUlb_-131" value="4" style="edgeLabel;html=1;align=center;verticalAlign=middle;resizable=0;points=[];labelBackgroundColor=none;fontColor=light-dark(#000000,#000000);" parent="OKMkMEvzD6gkjavkUlb_-106" vertex="1" connectable="0">
          <mxGeometry x="-0.2714" y="1" relative="1" as="geometry">
            <mxPoint x="3" y="9" as="offset" />
          </mxGeometry>
        </mxCell>
        <mxCell id="OKMkMEvzD6gkjavkUlb_-107" value="" style="endArrow=classic;html=1;rounded=0;labelBackgroundColor=none;fontColor=light-dark(#000000,#000000);strokeColor=light-dark(#000000,#000000);" parent="PkwB0OAWQbsNOSKVEP2Q-4" edge="1">
          <mxGeometry width="50" height="50" relative="1" as="geometry">
            <mxPoint x="436.23" y="441" as="sourcePoint" />
            <mxPoint x="435.77" y="489" as="targetPoint" />
          </mxGeometry>
        </mxCell>
        <mxCell id="OKMkMEvzD6gkjavkUlb_-132" value="4" style="edgeLabel;html=1;align=center;verticalAlign=middle;resizable=0;points=[];labelBackgroundColor=none;fontColor=light-dark(#000000,#000000);" parent="OKMkMEvzD6gkjavkUlb_-107" vertex="1" connectable="0">
          <mxGeometry x="-0.2238" relative="1" as="geometry">
            <mxPoint x="4" y="8" as="offset" />
          </mxGeometry>
        </mxCell>
        <mxCell id="OKMkMEvzD6gkjavkUlb_-109" value="" style="endArrow=none;html=1;rounded=0;labelBackgroundColor=none;fontColor=light-dark(#000000,#000000);strokeColor=light-dark(#000000,#000000);" parent="PkwB0OAWQbsNOSKVEP2Q-4" edge="1">
          <mxGeometry width="50" height="50" relative="1" as="geometry">
            <mxPoint x="29" y="490" as="sourcePoint" />
            <mxPoint x="437" y="487" as="targetPoint" />
          </mxGeometry>
        </mxCell>
        <mxCell id="OKMkMEvzD6gkjavkUlb_-138" style="edgeStyle=orthogonalEdgeStyle;rounded=0;orthogonalLoop=1;jettySize=auto;html=1;entryX=1;entryY=0.5;entryDx=0;entryDy=0;labelBackgroundColor=none;fontColor=light-dark(#000000,#000000);strokeColor=light-dark(#000000,#000000);" parent="PkwB0OAWQbsNOSKVEP2Q-4" source="OKMkMEvzD6gkjavkUlb_-110" target="OKMkMEvzD6gkjavkUlb_-137" edge="1">
          <mxGeometry relative="1" as="geometry" />
        </mxCell>
        <mxCell id="OKMkMEvzD6gkjavkUlb_-110" value="&lt;div&gt;&lt;div&gt;&lt;div&gt;&lt;font style=&quot;font-size: 7px;&quot;&gt;16&amp;nbsp; &amp;nbsp; 7&amp;nbsp; 20&amp;nbsp; 21&amp;nbsp; 29 12&amp;nbsp; 28&amp;nbsp; 17&lt;/font&gt;&lt;/div&gt;&lt;div&gt;&lt;font style=&quot;font-size: 7px;&quot;&gt;&amp;nbsp; 1&amp;nbsp; 15&amp;nbsp; 23&amp;nbsp; 26&amp;nbsp; &amp;nbsp;5&amp;nbsp; 18&amp;nbsp; 31&amp;nbsp; 10&lt;/font&gt;&lt;/div&gt;&lt;div&gt;&lt;font style=&quot;font-size: 7px;&quot;&gt;&amp;nbsp; 2&amp;nbsp; &amp;nbsp; 8&amp;nbsp; 24&amp;nbsp; 14&amp;nbsp; 32&amp;nbsp; 27&amp;nbsp; &amp;nbsp;3&amp;nbsp; &amp;nbsp; 9&lt;/font&gt;&lt;/div&gt;&lt;div&gt;&lt;font style=&quot;font-size: 7px;&quot;&gt;19&amp;nbsp; 13&amp;nbsp; 30&amp;nbsp; &amp;nbsp; 6&amp;nbsp; 22&amp;nbsp; 11&amp;nbsp; &amp;nbsp;4&amp;nbsp; 25&lt;/font&gt;&lt;/div&gt;&lt;/div&gt;&lt;/div&gt;" style="whiteSpace=wrap;html=1;aspect=fixed;align=left;labelBackgroundColor=none;fontColor=light-dark(#000000,#000000);strokeColor=light-dark(#000000,#000000);fillColor=light-dark(#FFFFFF,#FFFFFF);strokeWidth=2;" parent="PkwB0OAWQbsNOSKVEP2Q-4" vertex="1">
          <mxGeometry x="303.6600000000001" y="512" width="101.5" height="101.5" as="geometry" />
        </mxCell>
        <mxCell id="OKMkMEvzD6gkjavkUlb_-111" value="" style="endArrow=classic;html=1;rounded=0;entryX=0.5;entryY=0;entryDx=0;entryDy=0;labelBackgroundColor=none;fontColor=light-dark(#000000,#000000);strokeColor=light-dark(#000000,#000000);" parent="PkwB0OAWQbsNOSKVEP2Q-4" target="OKMkMEvzD6gkjavkUlb_-137" edge="1">
          <mxGeometry width="50" height="50" relative="1" as="geometry">
            <mxPoint x="230" y="489" as="sourcePoint" />
            <mxPoint x="231" y="532" as="targetPoint" />
          </mxGeometry>
        </mxCell>
        <mxCell id="OKMkMEvzD6gkjavkUlb_-134" value="32" style="edgeLabel;html=1;align=center;verticalAlign=middle;resizable=0;points=[];labelBackgroundColor=none;fontColor=light-dark(#000000,#000000);" parent="OKMkMEvzD6gkjavkUlb_-111" vertex="1" connectable="0">
          <mxGeometry x="-0.1419" y="1" relative="1" as="geometry">
            <mxPoint x="6" y="1" as="offset" />
          </mxGeometry>
        </mxCell>
        <mxCell id="OKMkMEvzD6gkjavkUlb_-112" value="&lt;b&gt;P&lt;/b&gt;" style="text;html=1;align=center;verticalAlign=middle;whiteSpace=wrap;rounded=0;labelBackgroundColor=none;fontColor=light-dark(#000000,#000000);" parent="PkwB0OAWQbsNOSKVEP2Q-4" vertex="1">
          <mxGeometry x="400.5" y="547.75" width="33" height="30" as="geometry" />
        </mxCell>
        <mxCell id="OKMkMEvzD6gkjavkUlb_-113" value="32 bits" style="ellipse;shape=cloud;whiteSpace=wrap;html=1;labelBackgroundColor=none;strokeColor=light-dark(#000000,#000000);fillColor=light-dark(#FFFFFF,#FFFFFF);fontColor=light-dark(#000000,#000000);" parent="PkwB0OAWQbsNOSKVEP2Q-4" vertex="1">
          <mxGeometry x="439.65999999999997" y="582" width="69" height="38" as="geometry" />
        </mxCell>
        <mxCell id="OKMkMEvzD6gkjavkUlb_-114" value="" style="curved=1;endArrow=classic;html=1;rounded=0;exitX=0.31;exitY=0.8;exitDx=0;exitDy=0;exitPerimeter=0;entryX=1;entryY=1;entryDx=0;entryDy=0;labelBackgroundColor=none;fontColor=light-dark(#000000,#000000);strokeColor=light-dark(#000000,#000000);" parent="PkwB0OAWQbsNOSKVEP2Q-4" source="OKMkMEvzD6gkjavkUlb_-113" target="OKMkMEvzD6gkjavkUlb_-110" edge="1">
          <mxGeometry width="50" height="50" relative="1" as="geometry">
            <mxPoint x="461.99" y="613" as="sourcePoint" />
            <mxPoint x="422.33000000000004" y="633" as="targetPoint" />
            <Array as="points">
              <mxPoint x="452.33000000000004" y="642" />
            </Array>
          </mxGeometry>
        </mxCell>
        <mxCell id="OKMkMEvzD6gkjavkUlb_-135" value="" style="endArrow=classic;html=1;rounded=0;entryX=0.5;entryY=0;entryDx=0;entryDy=0;labelBackgroundColor=none;fontColor=light-dark(#000000,#000000);strokeColor=light-dark(#000000,#000000);" parent="PkwB0OAWQbsNOSKVEP2Q-4" edge="1">
          <mxGeometry width="50" height="50" relative="1" as="geometry">
            <mxPoint x="230.99" y="584.25" as="sourcePoint" />
            <mxPoint x="230.99" y="634.25" as="targetPoint" />
          </mxGeometry>
        </mxCell>
        <mxCell id="OKMkMEvzD6gkjavkUlb_-136" value="32" style="edgeLabel;html=1;align=center;verticalAlign=middle;resizable=0;points=[];labelBackgroundColor=none;fontColor=light-dark(#000000,#000000);" parent="OKMkMEvzD6gkjavkUlb_-135" vertex="1" connectable="0">
          <mxGeometry x="-0.1419" y="1" relative="1" as="geometry">
            <mxPoint x="7" y="-1" as="offset" />
          </mxGeometry>
        </mxCell>
        <mxCell id="OKMkMEvzD6gkjavkUlb_-137" value="" style="shape=image;html=1;verticalLabelPosition=bottom;verticalAlign=top;imageAspect=1;aspect=fixed;image=img/clipart/Gear_128x128.png;labelBackgroundColor=none;" parent="PkwB0OAWQbsNOSKVEP2Q-4" vertex="1">
          <mxGeometry x="213" y="541.25" width="36.66" height="43" as="geometry" />
        </mxCell>
        <mxCell id="OKMkMEvzD6gkjavkUlb_-82" value="" style="group;labelBackgroundColor=none;" parent="PkwB0OAWQbsNOSKVEP2Q-4" vertex="1" connectable="0">
          <mxGeometry x="233" y="401" width="58" height="53" as="geometry" />
        </mxCell>
        <mxCell id="OKMkMEvzD6gkjavkUlb_-83" value="100&lt;div&gt;110&lt;/div&gt;" style="whiteSpace=wrap;html=1;aspect=fixed;labelBackgroundColor=none;" parent="OKMkMEvzD6gkjavkUlb_-82" vertex="1">
          <mxGeometry x="12.718928229665071" y="8.831125" width="32.561403508771924" height="32.561403508771924" as="geometry" />
        </mxCell>
        <mxCell id="OKMkMEvzD6gkjavkUlb_-150" value="&lt;b&gt;S5&lt;/b&gt;" style="text;html=1;align=center;verticalAlign=middle;whiteSpace=wrap;rounded=0;labelBackgroundColor=none;fontColor=light-dark(#000000,#000000);" parent="OKMkMEvzD6gkjavkUlb_-82" vertex="1">
          <mxGeometry x="-1" y="-7.170000000000016" width="20" height="16" as="geometry" />
        </mxCell>
        <mxCell id="OKMkMEvzD6gkjavkUlb_-100" value="" style="endArrow=classic;html=1;rounded=0;labelBackgroundColor=none;fontColor=default;strokeColor=light-dark(#000000,#000000);" parent="PkwB0OAWQbsNOSKVEP2Q-4" edge="1">
          <mxGeometry width="50" height="50" relative="1" as="geometry">
            <mxPoint x="28.80000000000001" y="438" as="sourcePoint" />
            <mxPoint x="29" y="492" as="targetPoint" />
          </mxGeometry>
        </mxCell>
        <mxCell id="OKMkMEvzD6gkjavkUlb_-125" value="4" style="edgeLabel;html=1;align=center;verticalAlign=middle;resizable=0;points=[];labelBackgroundColor=none;fontColor=light-dark(#000000,#000000);" parent="OKMkMEvzD6gkjavkUlb_-100" vertex="1" connectable="0">
          <mxGeometry x="-0.0553" relative="1" as="geometry">
            <mxPoint x="4" y="5" as="offset" />
          </mxGeometry>
        </mxCell>
        <mxCell id="OKMkMEvzD6gkjavkUlb_-153" value="&lt;b&gt;S2&lt;/b&gt;" style="text;html=1;align=center;verticalAlign=middle;whiteSpace=wrap;rounded=0;labelBackgroundColor=none;fontColor=light-dark(#000000,#000000);" parent="PkwB0OAWQbsNOSKVEP2Q-4" vertex="1">
          <mxGeometry x="58" y="393.83" width="20" height="16" as="geometry" />
        </mxCell>
        <mxCell id="PkwB0OAWQbsNOSKVEP2Q-5" value="" style="group" vertex="1" connectable="0" parent="1">
          <mxGeometry x="20.11" y="29" width="268.88" height="264.0038596491228" as="geometry" />
        </mxCell>
        <mxCell id="PkwB0OAWQbsNOSKVEP2Q-1" value="" style="shape=orEllipse;perimeter=ellipsePerimeter;whiteSpace=wrap;html=1;backgroundOutline=1;labelBackgroundColor=none;strokeColor=light-dark(#000000,#000000);fillColor=light-dark(#FFFFFF,#FFFFFF);" vertex="1" parent="PkwB0OAWQbsNOSKVEP2Q-5">
          <mxGeometry x="0.8900000000000006" y="209" width="20" height="20" as="geometry" />
        </mxCell>
        <mxCell id="OKMkMEvzD6gkjavkUlb_-141" value="&lt;h1 style=&quot;margin-top: 0px;&quot;&gt;&lt;font style=&quot;font-size: 12px;&quot;&gt;Legenda&lt;/font&gt;&lt;/h1&gt;&lt;p&gt;&lt;font&gt;&lt;b&gt;E&amp;nbsp; &amp;nbsp; &amp;nbsp; &amp;nbsp; &amp;nbsp; &amp;nbsp;Tabela de posiÃ§Ãµes para permutaÃ§Ã£o&lt;/b&gt;&lt;/font&gt;&lt;/p&gt;&lt;p&gt;&lt;font&gt;&lt;b&gt;P&amp;nbsp; &amp;nbsp; &amp;nbsp; &amp;nbsp; &amp;nbsp; &amp;nbsp;Tabela de posiÃ§Ãµas para permutaÃ§Ã£o&lt;/b&gt;&lt;/font&gt;&lt;/p&gt;&lt;p&gt;&lt;font&gt;&lt;b&gt;K[i]&amp;nbsp; &amp;nbsp; &amp;nbsp; &amp;nbsp; Chave derivada da rodada &#39;i&#39;&lt;/b&gt;&lt;/font&gt;&lt;/p&gt;&lt;p&gt;&lt;font&gt;&lt;b&gt;R[i]&amp;nbsp; &amp;nbsp; &amp;nbsp; &amp;nbsp; Metade direita da rodada &#39;i&#39;&lt;/b&gt;&lt;/font&gt;&lt;/p&gt;&lt;p&gt;&lt;font&gt;&lt;b&gt;i&amp;nbsp; &amp;nbsp; &amp;nbsp; &amp;nbsp; &amp;nbsp; &amp;nbsp; &amp;nbsp;Rodada atual&lt;/b&gt;&lt;/font&gt;&lt;/p&gt;&lt;p&gt;&lt;font&gt;&lt;b&gt;S&amp;nbsp; &amp;nbsp; &amp;nbsp; &amp;nbsp; &amp;nbsp; &amp;nbsp;Substitiuiton Box&lt;/b&gt;&lt;/font&gt;&lt;/p&gt;&lt;p&gt;&lt;font style=&quot;font-size: 10px;&quot;&gt;&lt;span style=&quot;font-size: 0px; text-wrap-mode: nowrap;&quot;&gt;&lt;b&gt;%3CmxGraphModel%3E%3Croot%3E%3CmxCell%20id%3D%220%22%2F%3E%3CmxCell%20id%3D%221%22%20parent%3D%220%22%2F%3E%3CmxCell%20id%3D%222%22%20value%3D%22%22%20style%3D%22shape%3Dimage%3Bhtml%3D1%3BverticalLabelPosition%3Dbottom%3BverticalAlign%3Dtop%3BimageAspect%3D1%3Baspect%3Dfixed%3Bimage%3Dimg%2Fclipart%2FGear_128x128.png%22%20vertex%3D%221%22%20parent%3D%221%22%3E%3CmxGeometry%20x%3D%22390%22%20y%3D%22153.5%22%20width%3D%2236.66%22%20height%3D%2243%22%20as%3D%22geometry%22%2F%3E%3C%2FmxCell%3E%3C%2Froot%3E%3C%2FmxGraphModel%3E&lt;/b&gt;&lt;/span&gt;&lt;/font&gt;&lt;/p&gt;&lt;p&gt;&lt;font style=&quot;font-size: 9px;&quot;&gt;&lt;br&gt;&lt;/font&gt;&lt;/p&gt;" style="text;html=1;whiteSpace=wrap;overflow=hidden;rounded=0;fontFamily=Tahoma;labelBackgroundColor=none;fontColor=light-dark(#000000,#000000);" parent="PkwB0OAWQbsNOSKVEP2Q-5" vertex="1">
          <mxGeometry x="3.8900000000000006" width="261" height="201" as="geometry" />
        </mxCell>
        <mxCell id="OKMkMEvzD6gkjavkUlb_-142" value="" style="shape=image;html=1;verticalLabelPosition=bottom;verticalAlign=top;imageAspect=1;aspect=fixed;image=img/clipart/Gear_128x128.png;labelBackgroundColor=none;" parent="PkwB0OAWQbsNOSKVEP2Q-5" vertex="1">
          <mxGeometry y="238.45999999999998" width="21.781052631578948" height="25.543859649122805" as="geometry" />
        </mxCell>
        <mxCell id="OKMkMEvzD6gkjavkUlb_-143" value="&lt;font&gt;&lt;b&gt;&amp;nbsp;Aplica permutaÃ§Ã£o dos bits com a tabela&lt;/b&gt;&lt;/font&gt;" style="text;html=1;align=center;verticalAlign=middle;whiteSpace=wrap;rounded=0;fontFamily=Tahoma;labelBackgroundColor=none;fontColor=light-dark(#000000,#000000);" parent="PkwB0OAWQbsNOSKVEP2Q-5" vertex="1">
          <mxGeometry x="28.89" y="234" width="239.99" height="30" as="geometry" />
        </mxCell>
        <mxCell id="PkwB0OAWQbsNOSKVEP2Q-2" value="&lt;font&gt;&lt;b&gt;&amp;nbsp; Aplica a operaÃ§Ã£o XOR&lt;/b&gt;&lt;/font&gt;" style="text;html=1;align=left;verticalAlign=middle;whiteSpace=wrap;rounded=0;fontFamily=Tahoma;labelBackgroundColor=none;fontColor=light-dark(#000000,#000000);" vertex="1" parent="PkwB0OAWQbsNOSKVEP2Q-5">
          <mxGeometry x="39.89" y="201" width="146" height="30" as="geometry" />
        </mxCell>
      </root>
    </mxGraphModel>
  </diagram>
</mxfile>
